<svg version="1" xmlns="http://www.w3.org/2000/svg" width="1024" height="1024" viewBox="0 0 768.000000 768.000000"><path d="M0 384v384h768V0H0v384zm455.5-206c74.9 3.8 111.7 26.9 126.2 79 2.5 8.8 2.7 11 2.7 29.5.1 22.2-1.6 33.6-7.5 51.8C557 399.7 498.3 447 420.4 464.5c-36 8.1-72.2 10-107.1 5.6-3.8-.5-7.1-.6-7.4-.2-.4.3-6.2 10.7-12.9 23l-12.3 22.3 1.9 3.2c2.2 3.8 2.2 11.7 0 17-1.4 3.4-27.6 42.8-31.4 47.1-.9 1.1-3.4 3.5-5.5 5.2-3.1 2.8-4.6 3.3-8.7 3.3-7.2 0-9.8-2.6-11.3-11.3-1.4-8.4.2-17.1 5.8-32.2 4.5-12 19.8-43.5 32.9-67.5 5.3-9.6 9.6-17.5 9.6-17.6 0 0-3-1.6-6.7-3.5-13.1-6.7-20.6-16.7-20.5-27.3.3-21.1 26.4-41.2 67.2-51.8l11.6-3 42.6-63.6c23.4-35.1 42.5-63.8 42.4-64-.5-.5-25.2 1.9-34.6 3.4-38.7 6-70.9 15.6-123.3 36.5-13.6 5.4-25.5 9.9-26.6 9.9-1 0-2.6-.9-3.6-2-1.5-1.7-1.6-2.3-.5-5.2 4-10 18.9-38.1 33.6-63.4l9.4-16 22.2-7.2c51.9-16.7 93-25.1 133.3-27.2 7.7-.4 14.7-.7 15.5-.8.8-.1 9.6.3 19.5.8z"/><path d="M428 254.3c0 7.2-2.3 15.7-7 25.2-2.1 4.4-15.8 26.7-30.4 49.5-14.5 22.8-26.3 41.6-26.1 41.8.1.2 8.6-.7 18.9-1.9 14.9-1.7 18.9-1.9 20.1-.9 2.2 1.8 1.8 4.7-.7 6.4-1.3.8-12.5 3.5-25.1 5.9-12.5 2.4-22.9 4.6-23 4.8-.2.2-3.8 6.2-8 13.2-6.6 11-7.4 12.9-5.9 13.4.9.4 14.8.7 30.7.7 25 0 31-.3 43.2-2.2 24.1-3.8 41.8-9.1 62.2-18.8 35.1-16.6 62.3-44.8 73.4-76 8.8-24.5 3.8-41.2-15.6-52.2-15.6-8.9-48.9-14.2-89.9-14.2H428v5.3z"/></svg>